<svg id="e2D0x3u7Wjk1" xmlns="http://www.w3.org/2000/svg" xmlns:xlink="http://www.w3.org/1999/xlink" viewBox="0 0 300 110" shape-rendering="geometricPrecision" text-rendering="geometricPrecision" project-id="30b8e3d89a074e1e8a9364fdcb731965" export-id="c335f2acabc247969e40c4392576de43" cached="false"><ellipse rx="10" ry="10" transform="translate(28.489429 83.850383)" fill="#d2dbed" stroke="#000"/><ellipse rx="10" ry="10" transform="translate(280.255465 83.339066)" fill="#e7efff" stroke="#000" stroke-width="2"/><rect width="56.193354" height="25.951662" rx="3" ry="3" transform="matrix(1.270962 0 0 1.676364 113.61238 62.098169)" fill="#d2dbed" stroke="#000"/><rect width="56.193354" height="25.951662" rx="3" ry="3" transform="matrix(1.270962 0 0 1.676364 113.61238 3.489493)" fill="#d2dbed" stroke="#000"/><rect width="20" height="20" rx="0" ry="0" transform="matrix(.707107 0.707107-.707107 0.707107 75.650423 69.708249)" fill="#d2dbed" stroke="#000"/><rect width="20" height="20" rx="0" ry="0" transform="matrix(.707107 0.707107-.707107 0.707107 225.009618 69.70825)" fill="#d2dbed" stroke="#000"/><g transform="matrix(.832365 0 0 1.001289 4.505168-14.645146)"><line x1="-10.799022" y1="0" x2="10.799022" y2="0" transform="translate(54.001442 98.368724)" fill="none" stroke="#000" stroke-width="2" stroke-linecap="square"/><g transform="matrix(.707107-.707107 0.707107 0.707107-45.86021 78.342602)"><line x1="-10.799022" y1="0" x2="10.799022" y2="0" transform="matrix(.266225 0 0 1 62.610483 93.084518)" fill="none" stroke="#000" stroke-width="2" stroke-linecap="square"/><line x1="-10.799022" y1="0" x2="10.799022" y2="0" transform="matrix(0 0.266225-1 0 64.800464 90.931693)" fill="none" stroke="#000" stroke-width="2" stroke-linecap="square"/></g></g><g transform="matrix(.832365 0 0 1.001289 55.210899-14.953778)"><line x1="-10.799022" y1="0" x2="10.799022" y2="0" transform="translate(54.001442 98.368724)" fill="none" stroke="#000" stroke-width="2" stroke-linecap="square"/><g transform="matrix(.707107-.707107 0.707107 0.707107-45.86021 78.342602)"><line x1="-10.799022" y1="0" x2="10.799022" y2="0" transform="matrix(.266225 0 0 1 62.610483 93.084518)" fill="none" stroke="#000" stroke-width="2" stroke-linecap="square"/><line x1="-10.799022" y1="0" x2="10.799022" y2="0" transform="matrix(0 0.266225-1 0 64.800464 90.931693)" fill="none" stroke="#000" stroke-width="2" stroke-linecap="square"/></g></g><g transform="matrix(.832365 0 0 1.001289 210.011807-15.156455)"><line x1="-10.799022" y1="0" x2="10.799022" y2="0" transform="translate(54.001442 98.368724)" fill="none" stroke="#000" stroke-width="2" stroke-linecap="square"/><g transform="matrix(.707107-.707107 0.707107 0.707107-45.86021 78.342602)"><line x1="-10.799022" y1="0" x2="10.799022" y2="0" transform="matrix(.266225 0 0 1 62.610483 93.084518)" fill="none" stroke="#000" stroke-width="2" stroke-linecap="square"/><line x1="-10.799022" y1="0" x2="10.799022" y2="0" transform="matrix(0 0.266225-1 0 64.800464 90.931693)" fill="none" stroke="#000" stroke-width="2" stroke-linecap="square"/></g></g><g transform="matrix(0 1-1 0 287.060948-51.441827)"><g transform="matrix(.832365 0 0 1.001289 58.951926-35.573155)"><line x1="-10.799022" y1="0" x2="10.799022" y2="0" transform="translate(54.001442 98.368724)" fill="none" stroke="#000" stroke-width="2" stroke-linecap="square"/><g transform="matrix(.707107-.707107 0.707107 0.707107-45.86021 78.342602)"><line x1="-10.799022" y1="0" x2="10.799022" y2="0" transform="matrix(.266225 0 0 1 62.610483 93.084518)" fill="none" stroke="#000" stroke-width="2" stroke-linecap="square"/><line x1="-10.799022" y1="0" x2="10.799022" y2="0" transform="matrix(0 0.266225-1 0 64.800464 90.931693)" fill="none" stroke="#000" stroke-width="2" stroke-linecap="square"/></g></g><line x1="-10.799022" y1="0" x2="10.799022" y2="0" transform="matrix(0 1.167184 1 0 77.539406 76.576602)" fill="none" stroke="#000" stroke-width="2" stroke-linecap="square"/><line x1="-10.799022" y1="0" x2="10.799022" y2="0" transform="matrix(1.022641 0 0 1 88.785474 62.719708)" fill="none" stroke="#000" stroke-width="2" stroke-linecap="square"/></g><g transform="matrix(.832365 0 0 1.001289 50.185585-74.250099)"><line x1="-10.799022" y1="0" x2="10.799022" y2="0" transform="translate(54.001442 98.368724)" fill="none" stroke="#000" stroke-width="2" stroke-linecap="square"/><g transform="matrix(.707107-.707107 0.707107 0.707107-45.86021 78.342602)"><line x1="-10.799022" y1="0" x2="10.799022" y2="0" transform="matrix(.266225 0 0 1 62.610483 93.084518)" fill="none" stroke="#000" stroke-width="2" stroke-linecap="square"/><line x1="-10.799022" y1="0" x2="10.799022" y2="0" transform="matrix(0 0.266225-1 0 64.800464 90.931693)" fill="none" stroke="#000" stroke-width="2" stroke-linecap="square"/></g></g><line x1="-10.799022" y1="0" x2="10.799022" y2="0" transform="matrix(0 1.866525-1 0 73.826415 45.398354)" fill="none" stroke="#000" stroke-width="2" stroke-linecap="square"/><line x1="-10.799022" y1="0" x2="10.799022" y2="0" transform="matrix(.986509 0 0 1 84.477818 24.24543)" fill="none" stroke="#000" stroke-width="2" stroke-linecap="square"/><g transform="matrix(.832365 0 0 1.001289 153.055834-14.847811)"><line x1="-10.799022" y1="0" x2="10.799022" y2="0" transform="translate(54.001442 98.368724)" fill="none" stroke="#000" stroke-width="2" stroke-linecap="square"/><g transform="matrix(.707107-.707107 0.707107 0.707107-45.86021 78.342602)"><line x1="-10.799022" y1="0" x2="10.799022" y2="0" transform="matrix(.266225 0 0 1 62.610483 93.084518)" fill="none" stroke="#000" stroke-width="2" stroke-linecap="square"/><line x1="-10.799022" y1="0" x2="10.799022" y2="0" transform="matrix(0 0.266225-1 0 64.800464 90.931693)" fill="none" stroke="#000" stroke-width="2" stroke-linecap="square"/></g></g></svg>
